<svg width="14" height="14" viewBox="0 0 14 14" fill="none" xmlns="http://www.w3.org/2000/svg">
<path d="M12.25 11.6666C12.25 11.8213 12.1885 11.9697 12.0791 12.0791C11.9697 12.1885 11.8214 12.2499 11.6667 12.2499H2.33333C2.17862 12.2499 2.03025 12.1885 1.92085 12.0791C1.81146 11.9697 1.75 11.8213 1.75 11.6666V5.53575C1.74994 5.44686 1.77019 5.35912 1.80922 5.27926C1.84824 5.19939 1.905 5.12949 1.97517 5.07491L6.64183 1.44541C6.74423 1.36576 6.87027 1.32251 7 1.32251C7.12973 1.32251 7.25577 1.36576 7.35817 1.44541L12.0248 5.07491C12.095 5.12949 12.1518 5.19939 12.1908 5.27926C12.2298 5.35912 12.2501 5.44686 12.25 5.53575V11.6666V11.6666ZM11.0833 11.0832V5.82041L7 2.64475L2.91667 5.82041V11.0832H11.0833ZM4.08333 8.74991H9.91667V9.91658H4.08333V8.74991Z" fill="black"/>
</svg>
