<svg width="16" height="22" viewBox="0 0 16 22" fill="none" xmlns="http://www.w3.org/2000/svg">
<path d="M14 0C15.1042 0 16 0.923398 16 2.0625V19.9375C16 21.0762 15.1042 22 14 22H10V18.5625C10 17.4238 9.10417 16.5 8 16.5C6.89583 16.5 6 17.4238 6 18.5625V22H2C0.895417 22 0 21.0762 0 19.9375V2.0625C0 0.923398 0.895417 0 2 0H14ZM2.66667 11.6875C2.66667 12.0656 2.965 12.375 3.33333 12.375H4.66667C5.03333 12.375 5.33333 12.0656 5.33333 11.6875V10.3125C5.33333 9.93437 5.03333 9.625 4.66667 9.625H3.33333C2.965 9.625 2.66667 9.93437 2.66667 10.3125V11.6875ZM7.33333 9.625C6.96667 9.625 6.66667 9.93437 6.66667 10.3125V11.6875C6.66667 12.0656 6.96667 12.375 7.33333 12.375H8.66667C9.03333 12.375 9.33333 12.0656 9.33333 11.6875V10.3125C9.33333 9.93437 9.03333 9.625 8.66667 9.625H7.33333ZM10.6667 11.6875C10.6667 12.0656 10.9667 12.375 11.3333 12.375H12.6667C13.0333 12.375 13.3333 12.0656 13.3333 11.6875V10.3125C13.3333 9.93437 13.0333 9.625 12.6667 9.625H11.3333C10.9667 9.625 10.6667 9.93437 10.6667 10.3125V11.6875ZM3.33333 4.125C2.965 4.125 2.66667 4.43437 2.66667 4.8125V6.1875C2.66667 6.56563 2.965 6.875 3.33333 6.875H4.66667C5.03333 6.875 5.33333 6.56563 5.33333 6.1875V4.8125C5.33333 4.43437 5.03333 4.125 4.66667 4.125H3.33333ZM6.66667 6.1875C6.66667 6.56563 6.96667 6.875 7.33333 6.875H8.66667C9.03333 6.875 9.33333 6.56563 9.33333 6.1875V4.8125C9.33333 4.43437 9.03333 4.125 8.66667 4.125H7.33333C6.96667 4.125 6.66667 4.43437 6.66667 4.8125V6.1875ZM11.3333 4.125C10.9667 4.125 10.6667 4.43437 10.6667 4.8125V6.1875C10.6667 6.56563 10.9667 6.875 11.3333 6.875H12.6667C13.0333 6.875 13.3333 6.56563 13.3333 6.1875V4.8125C13.3333 4.43437 13.0333 4.125 12.6667 4.125H11.3333Z" fill="black"/>
</svg>
